<?xml version="1.0" encoding="UTF-8" standalone="no"?>
<svg
   xmlns:dc="http://purl.org/dc/elements/1.1/"
   xmlns:cc="http://creativecommons.org/ns#"
   xmlns:rdf="http://www.w3.org/1999/02/22-rdf-syntax-ns#"
   xmlns:svg="http://www.w3.org/2000/svg"
   xmlns="http://www.w3.org/2000/svg"
   viewBox="0 0 1682.2 254.836"
   height="254.836"
   width="1682.2"
   xml:space="preserve"
   id="svg1151"
   version="1.1"><metadata
     id="metadata1157"><rdf:RDF><cc:Work
         rdf:about=""><dc:format>image/svg+xml</dc:format><dc:type
           rdf:resource="http://purl.org/dc/dcmitype/StillImage" /><dc:title></dc:title></cc:Work></rdf:RDF></metadata><defs
     id="defs1155"><clipPath
       id="clipPath1167"
       clipPathUnits="userSpaceOnUse"><path
         id="path1165"
         d="M 0,191.127 H 1261.652 V 0 H 0 Z" /></clipPath></defs><g
     transform="matrix(1.3333333,0,0,-1.3333333,0,254.836)"
     id="g1159"><g
       id="g1161"><g
         clip-path="url(#clipPath1167)"
         id="g1163"><g
           transform="translate(160.2063,98.8118)"
           id="g1169"><path
             id="path1171"
             style="fill:#203f41;fill-opacity:1;fill-rule:nonzero;stroke:none"
             d="m 0,0 c -4.915,0 -8.319,2.074 -8.562,6.521 0,0.19 0.163,0.354 0.352,0.354 h 3.591 c 0.189,0 0.351,-0.136 0.379,-0.354 0.297,-2.074 1.269,-3.411 4.321,-3.411 2.458,0 3.808,0.737 3.808,2.538 0,4.31 -12.073,0.9 -12.073,8.484 0,3.574 2.755,5.811 7.59,5.811 4.375,0 7.427,-1.692 8.021,-5.702 C 7.454,14.05 7.32,13.886 7.13,13.886 H 3.538 c -0.216,0 -0.378,0.136 -0.405,0.355 -0.27,1.664 -1.648,2.564 -3.889,2.564 -1.945,0 -3.349,-0.682 -3.349,-2.264 0,-4.065 12.127,-0.764 12.127,-8.321 C 8.022,2.183 4.942,0 0,0" /></g><g
           transform="translate(174.7064,98.9215)"
           id="g1173"><path
             id="path1175"
             style="fill:#203f41;fill-opacity:1;fill-rule:nonzero;stroke:none"
             d="m 0,0 c -2.943,0 -4.807,2.019 -4.807,5.456 v 2.946 l -0.108,5.621 c 0,0.19 0.162,0.354 0.351,0.354 h 3.402 c 0.19,0 0.352,-0.164 0.352,-0.354 L -0.918,8.402 V 5.511 C -0.918,3.982 0.027,3 1.243,3 2.701,3 4.268,4.365 4.268,7.365 v 1.037 l -0.054,5.621 c 0,0.19 0.161,0.354 0.35,0.354 h 3.458 c 0.189,0 0.351,-0.164 0.351,-0.354 L 8.211,7.638 8.319,0.681 C 8.319,0.49 8.157,0.327 7.968,0.327 H 4.753 C 4.564,0.327 4.402,0.49 4.43,0.681 L 4.484,2.1 C 3.538,0.873 1.944,0 0,0" /></g><g
           transform="translate(191.9347,98.9215)"
           id="g1177"><path
             id="path1179"
             style="fill:#203f41;fill-opacity:1;fill-rule:nonzero;stroke:none"
             d="m 0,0 c -3.808,0 -6.752,1.61 -6.968,4.692 0,0.191 0.162,0.354 0.352,0.354 h 3.213 c 0.216,0 0.378,-0.135 0.405,-0.354 C -2.862,3.191 -1.863,2.537 0,2.537 c 1.594,0 2.458,0.628 2.458,1.718 0,2.674 -9.101,0.082 -9.101,5.975 0,2.919 2.322,4.475 6.076,4.475 3.62,0 6.051,-1.446 6.347,-4.311 C 5.807,10.203 5.645,10.039 5.456,10.039 H 2.404 c -0.215,0 -0.378,0.137 -0.432,0.355 -0.244,1.118 -0.999,1.828 -2.593,1.828 -1.324,0 -2.161,-0.491 -2.161,-1.692 0,-2.673 9.102,0.055 9.102,-5.92 C 6.32,1.664 3.565,0 0,0" /></g><g
           transform="translate(208.0295,99.8757)"
           id="g1181"><path
             id="path1183"
             style="fill:#203f41;fill-opacity:1;fill-rule:nonzero;stroke:none"
             d="m 0,0 c 0,-0.217 -0.136,-0.408 -0.324,-0.464 -0.756,-0.245 -1.621,-0.435 -2.431,-0.435 -2.35,0 -4.592,1.199 -4.592,4.391 l 0.028,7.039 h -1.459 c -0.189,0 -0.351,0.164 -0.351,0.354 v 2.184 c 0,0.19 0.162,0.354 0.351,0.354 h 1.431 L -7.4,16.587 c 0,0.192 0.162,0.355 0.351,0.355 h 3.456 c 0.19,0 0.352,-0.163 0.352,-0.355 l -0.054,-3.164 h 2.971 c 0.188,0 0.351,-0.164 0.351,-0.354 v -2.184 c 0,-0.19 -0.163,-0.354 -0.351,-0.354 h -2.998 l 0.027,-6.93 c 0,-1.2 0.595,-1.582 1.485,-1.582 0.595,0 1.08,0.109 1.459,0.192 C -0.162,2.264 0,2.128 0,1.964 Z" /></g><g
           transform="translate(216.1302,101.7038)"
           id="g1185"><path
             id="path1187"
             style="fill:#203f41;fill-opacity:1;fill-rule:nonzero;stroke:none"
             d="M 0,0 C 1.972,0 3.026,1.5 3.052,4.474 3.079,7.476 2.026,9.113 0.081,9.139 -1.972,9.193 -3.025,7.638 -3.025,4.747 -3.025,1.582 -1.945,-0.027 0,0 m 3.269,-2.455 c -0.19,0 -0.352,0.163 -0.352,0.354 l 0.054,1.283 c -0.972,-1.201 -2.35,-1.91 -4.106,-1.91 -3.942,0 -6.022,3.165 -6.022,7.257 0,4.064 2.322,7.338 6.104,7.338 1.728,0 3.079,-0.626 4.024,-1.773 l -0.054,1.147 c -0.027,0.189 0.135,0.354 0.324,0.354 h 3.43 c 0.189,0 0.351,-0.165 0.351,-0.354 L 6.86,4.556 7.022,-2.101 c 0,-0.191 -0.162,-0.354 -0.351,-0.354 z" /></g><g
           transform="translate(225.9042,114.6623)"
           id="g1189"><path
             id="path1191"
             style="fill:#203f41;fill-opacity:1;fill-rule:nonzero;stroke:none"
             d="m 0,0 c -0.189,0 -0.351,0.164 -0.351,0.355 v 2.974 c 0,0.191 0.162,0.354 0.351,0.354 h 3.403 c 0.189,0 0.351,-0.163 0.351,-0.354 V 0.355 C 3.754,0.164 3.592,0 3.403,0 Z m -0.054,-15.414 c -0.189,0 -0.351,0.164 -0.351,0.355 l 0.162,6.656 -0.162,6.684 c 0,0.191 0.162,0.356 0.351,0.356 h 3.511 c 0.19,0 0.352,-0.165 0.352,-0.356 l -0.162,-6.684 0.162,-6.656 c 0,-0.191 -0.162,-0.355 -0.352,-0.355 z" /></g><g
           transform="translate(232.4654,99.2488)"
           id="g1193"><path
             id="path1195"
             style="fill:#203f41;fill-opacity:1;fill-rule:nonzero;stroke:none"
             d="m 0,0 c -0.189,0 -0.351,0.163 -0.351,0.354 l 0.162,6.384 -0.108,6.957 c 0,0.191 0.162,0.355 0.351,0.355 h 3.214 c 0.189,0 0.352,-0.164 0.324,-0.355 L 3.538,12.276 c 0.946,1.228 2.54,2.101 4.484,2.101 2.944,0 4.807,-2.019 4.807,-5.457 V 5.975 L 12.937,0.354 C 12.937,0.163 12.775,0 12.586,0 H 9.183 C 8.994,0 8.832,0.163 8.832,0.354 l 0.109,5.621 v 2.891 c 0,1.528 -0.946,2.51 -2.161,2.51 -1.459,0 -3.026,-1.364 -3.026,-4.365 V 5.975 L 3.809,0.354 C 3.809,0.163 3.647,0 3.457,0 Z" /></g><g
           transform="translate(254.3665,101.7038)"
           id="g1197"><path
             id="path1199"
             style="fill:#203f41;fill-opacity:1;fill-rule:nonzero;stroke:none"
             d="M 0,0 C 1.972,0 3.025,1.5 3.052,4.474 3.079,7.476 2.026,9.113 0.081,9.139 -1.972,9.193 -3.025,7.638 -3.025,4.747 -3.025,1.582 -1.945,-0.027 0,0 m 3.268,-2.455 c -0.189,0 -0.351,0.163 -0.351,0.354 l 0.054,1.283 c -0.972,-1.201 -2.35,-1.91 -4.106,-1.91 -3.942,0 -6.022,3.165 -6.022,7.257 0,4.064 2.322,7.338 6.104,7.338 1.728,0 3.079,-0.626 4.024,-1.773 l -0.054,1.147 c -0.027,0.189 0.135,0.354 0.324,0.354 h 3.43 c 0.189,0 0.351,-0.165 0.351,-0.354 L 6.86,4.556 7.022,-2.101 c 0,-0.191 -0.162,-0.354 -0.351,-0.354 z" /></g><g
           transform="translate(270.5417,101.7582)"
           id="g1201"><path
             id="path1203"
             style="fill:#203f41;fill-opacity:1;fill-rule:nonzero;stroke:none"
             d="m 0,0 c 2.053,-0.055 3.106,1.555 3.106,4.393 0,3.083 -1.08,4.665 -3.025,4.638 -1.971,0 -3.025,-1.474 -3.052,-4.366 C -2.998,1.665 -1.945,0.027 0,0 m 1.134,-2.782 c -1.728,0 -3.079,0.627 -4.024,1.773 l 0.054,-1.146 c 0.027,-0.191 -0.135,-0.354 -0.323,-0.354 H -6.59 c -0.189,0 -0.351,0.163 -0.351,0.354 l 0.162,9.194 -0.162,9.194 c 0,0.19 0.162,0.354 0.351,0.354 h 3.457 c 0.189,0 0.351,-0.164 0.351,-0.354 L -2.863,9.931 c 0.946,1.2 2.35,1.881 4.079,1.881 3.943,0 6.022,-3.163 6.022,-7.256 0,-4.065 -2.322,-7.338 -6.104,-7.338" /></g><g
           transform="translate(280.1268,99.2488)"
           id="g1205"><path
             id="path1207"
             style="fill:#203f41;fill-opacity:1;fill-rule:nonzero;stroke:none"
             d="m 0,0 c -0.189,0 -0.351,0.163 -0.351,0.354 l 0.189,9.195 -0.189,9.193 c 0,0.191 0.162,0.354 0.351,0.354 h 3.404 c 0.188,0 0.35,-0.163 0.35,-0.354 L 3.565,9.549 3.754,0.354 C 3.754,0.163 3.592,0 3.404,0 Z" /></g><g
           transform="translate(292.9816,110.9518)"
           id="g1209"><path
             id="path1211"
             style="fill:#203f41;fill-opacity:1;fill-rule:nonzero;stroke:none"
             d="M 0,0 C -1.621,0 -2.593,-0.982 -2.917,-2.918 H 2.782 C 2.62,-1.418 1.783,0 0,0 m 6.401,-6.956 c 0.189,0 0.324,-0.164 0.297,-0.355 -0.378,-2.537 -2.809,-4.747 -6.644,-4.747 -4.645,0 -7.158,3.083 -7.158,7.339 0,4.474 2.647,7.42 7.077,7.42 4.537,0 7.075,-3.028 7.184,-7.857 0,-0.19 -0.162,-0.354 -0.351,-0.354 h -9.831 c 0.162,-2.647 1.188,-3.82 3.133,-3.82 1.324,0 2.296,0.6 2.674,2.019 0.054,0.218 0.243,0.355 0.459,0.355 z" /></g><g
           transform="translate(315.7189,98.8395)"
           id="g1213"><path
             id="path1215"
             style="fill:#203f41;fill-opacity:1;fill-rule:nonzero;stroke:none"
             d="m 0,0 c -5.806,0 -9.399,4.064 -9.399,9.875 0,6.084 3.673,10.04 9.372,10.04 4.052,0 7.32,-1.664 8.427,-6.684 C 8.453,13.04 8.319,12.877 8.13,12.877 H 4.807 c -0.189,0 -0.377,0.136 -0.432,0.354 -0.539,2.237 -2.026,3.492 -4.455,3.492 -3.296,0 -5.078,-2.564 -5.078,-6.82 0,-4.255 1.836,-6.712 5.05,-6.712 2.62,0 4.024,1.393 4.565,3.929 0.027,0.219 0.216,0.356 0.405,0.356 H 8.264 C 8.453,7.476 8.589,7.311 8.535,7.12 7.481,1.991 4.402,0 0,0" /></g><g
           transform="translate(332.7584,101.7038)"
           id="g1217"><path
             id="path1219"
             style="fill:#203f41;fill-opacity:1;fill-rule:nonzero;stroke:none"
             d="M 0,0 C 1.972,0 3.025,1.5 3.051,4.474 3.078,7.476 2.025,9.113 0.08,9.139 -1.973,9.193 -3.026,7.638 -3.026,4.747 -3.026,1.582 -1.945,-0.027 0,0 m 3.268,-2.455 c -0.19,0 -0.352,0.163 -0.352,0.354 l 0.055,1.283 c -0.973,-1.201 -2.35,-1.91 -4.106,-1.91 -3.943,0 -6.023,3.165 -6.023,7.257 0,4.064 2.322,7.338 6.104,7.338 1.729,0 3.079,-0.626 4.025,-1.773 l -0.055,1.147 c -0.027,0.189 0.135,0.354 0.324,0.354 h 3.431 c 0.189,0 0.35,-0.165 0.35,-0.354 L 6.86,4.556 7.021,-2.101 c 0,-0.191 -0.161,-0.354 -0.35,-0.354 z" /></g><g
           transform="translate(342.3968,99.2488)"
           id="g1221"><path
             id="path1223"
             style="fill:#203f41;fill-opacity:1;fill-rule:nonzero;stroke:none"
             d="m 0,0 c -0.189,0 -0.351,0.163 -0.351,0.354 l 0.162,6.384 -0.108,6.957 c 0,0.191 0.161,0.355 0.35,0.355 h 3.215 c 0.189,0 0.352,-0.164 0.324,-0.355 L 3.538,12.276 c 0.946,1.228 2.539,2.101 4.484,2.101 2.943,0 4.807,-2.019 4.807,-5.457 V 5.975 L 12.937,0.354 C 12.937,0.163 12.774,0 12.585,0 H 9.183 C 8.994,0 8.831,0.163 8.831,0.354 L 8.94,5.975 v 2.891 c 0,1.528 -0.946,2.51 -2.161,2.51 -1.459,0 -3.025,-1.364 -3.025,-4.365 V 5.975 L 3.809,0.354 C 3.809,0.163 3.646,0 3.457,0 Z" /></g><g
           transform="translate(364.2979,101.7038)"
           id="g1225"><path
             id="path1227"
             style="fill:#203f41;fill-opacity:1;fill-rule:nonzero;stroke:none"
             d="M 0,0 C 1.972,0 3.025,1.5 3.052,4.474 3.079,7.476 2.025,9.113 0.081,9.139 -1.972,9.193 -3.026,7.638 -3.026,4.747 -3.026,1.582 -1.945,-0.027 0,0 m 3.268,-2.455 c -0.189,0 -0.351,0.163 -0.351,0.354 l 0.054,1.283 c -0.972,-1.201 -2.349,-1.91 -4.106,-1.91 -3.943,0 -6.022,3.165 -6.022,7.257 0,4.064 2.323,7.338 6.104,7.338 1.728,0 3.078,-0.626 4.024,-1.773 l -0.054,1.147 c -0.027,0.189 0.135,0.354 0.324,0.354 h 3.43 c 0.189,0 0.351,-0.165 0.351,-0.354 L 6.86,4.556 7.022,-2.101 c 0,-0.191 -0.162,-0.354 -0.351,-0.354 z" /></g><g
           transform="translate(380.3375,101.677)"
           id="g1229"><path
             id="path1231"
             style="fill:#203f41;fill-opacity:1;fill-rule:nonzero;stroke:none"
             d="M 0,0 C 1.972,0 3.025,1.5 3.052,4.473 3.08,7.502 2.027,9.166 0.081,9.193 -1.971,9.248 -3.025,7.666 -3.025,4.746 -3.025,1.581 -1.944,-0.027 0,0 m 3.241,-2.428 c -0.189,0 -0.351,0.163 -0.324,0.354 l 0.054,1.282 c -0.972,-1.2 -2.349,-1.909 -4.106,-1.909 -3.943,0 -6.022,3.165 -6.022,7.257 0,4.064 2.323,7.337 6.104,7.337 1.701,0 3.052,-0.599 3.997,-1.772 l -0.081,6.193 c 0,0.191 0.162,0.354 0.352,0.354 h 3.456 c 0.189,0 0.351,-0.163 0.351,-0.354 L 6.887,7.12 7.022,-2.074 c 0,-0.191 -0.162,-0.354 -0.351,-0.354 z" /></g><g
           transform="translate(390.1115,114.6623)"
           id="g1233"><path
             id="path1235"
             style="fill:#203f41;fill-opacity:1;fill-rule:nonzero;stroke:none"
             d="m 0,0 c -0.189,0 -0.352,0.164 -0.352,0.355 v 2.974 c 0,0.191 0.163,0.354 0.352,0.354 h 3.403 c 0.189,0 0.351,-0.163 0.351,-0.354 V 0.355 C 3.754,0.164 3.592,0 3.403,0 Z m -0.054,-15.414 c -0.189,0 -0.351,0.164 -0.351,0.355 l 0.162,6.656 -0.162,6.684 c 0,0.191 0.162,0.356 0.351,0.356 h 3.511 c 0.189,0 0.352,-0.165 0.352,-0.356 l -0.163,-6.684 0.163,-6.656 c 0,-0.191 -0.163,-0.355 -0.352,-0.355 z" /></g><g
           transform="translate(403.0748,101.7038)"
           id="g1237"><path
             id="path1239"
             style="fill:#203f41;fill-opacity:1;fill-rule:nonzero;stroke:none"
             d="M 0,0 C 1.971,0 3.024,1.5 3.052,4.474 3.079,7.476 2.025,9.113 0.081,9.139 -1.972,9.193 -3.026,7.638 -3.026,4.747 -3.026,1.582 -1.945,-0.027 0,0 m 3.268,-2.455 c -0.189,0 -0.352,0.163 -0.352,0.354 l 0.055,1.283 c -0.972,-1.201 -2.35,-1.91 -4.106,-1.91 -3.943,0 -6.022,3.165 -6.022,7.257 0,4.064 2.322,7.338 6.104,7.338 1.728,0 3.078,-0.626 4.024,-1.773 l -0.055,1.147 c -0.026,0.189 0.136,0.354 0.325,0.354 h 3.43 c 0.189,0 0.35,-0.165 0.35,-0.354 L 6.86,4.556 7.021,-2.101 c 0,-0.191 -0.161,-0.354 -0.35,-0.354 z" /></g><g
           transform="translate(412.7132,99.2488)"
           id="g1241"><path
             id="path1243"
             style="fill:#203f41;fill-opacity:1;fill-rule:nonzero;stroke:none"
             d="m 0,0 c -0.189,0 -0.351,0.163 -0.351,0.354 l 0.162,6.384 -0.108,6.957 c 0,0.191 0.161,0.355 0.35,0.355 h 3.215 c 0.189,0 0.352,-0.164 0.324,-0.355 L 3.538,12.276 c 0.946,1.228 2.539,2.101 4.484,2.101 2.943,0 4.807,-2.019 4.807,-5.457 V 5.975 L 12.937,0.354 C 12.937,0.163 12.775,0 12.586,0 H 9.183 C 8.994,0 8.831,0.163 8.831,0.354 L 8.94,5.975 v 2.891 c 0,1.528 -0.945,2.51 -2.161,2.51 -1.458,0 -3.025,-1.364 -3.025,-4.365 V 5.975 L 3.809,0.354 C 3.809,0.163 3.646,0 3.457,0 Z" /></g><g
           transform="translate(162.7989,79.745)"
           id="g1245"><path
             id="path1247"
             style="fill:#203f41;fill-opacity:1;fill-rule:nonzero;stroke:none"
             d="M 0,0 -2.593,8.157 -5.051,0 Z m 2.917,-8.158 c -0.216,0 -0.405,0.137 -0.459,0.328 L 1.026,-3.301 H -6.05 L -7.427,-7.83 C -7.481,-8.021 -7.67,-8.158 -7.886,-8.158 h -3.484 c -0.162,0 -0.298,0.164 -0.244,0.328 l 6.347,18.442 c 0.055,0.191 0.243,0.327 0.46,0.327 h 4.834 c 0.216,0 0.405,-0.136 0.459,-0.327 L 6.699,-7.83 C 6.752,-7.994 6.644,-8.158 6.455,-8.158 Z" /></g><g
           transform="translate(176.7865,74.3429)"
           id="g1249"><path
             id="path1251"
             style="fill:#203f41;fill-opacity:1;fill-rule:nonzero;stroke:none"
             d="M 0,0 C 1.972,0 3.025,1.419 3.052,4.256 3.079,7.174 2.026,8.784 0.08,8.812 -1.972,8.866 -3.025,7.339 -3.025,4.529 -3.025,1.501 -1.945,-0.027 0,0 m 0.027,-8.211 c -3.619,-0.056 -6.347,1.418 -6.617,4.42 -0.027,0.191 0.135,0.353 0.323,0.353 h 3.268 c 0.217,0 0.379,-0.136 0.433,-0.353 0.216,-1.092 1.134,-1.72 2.728,-1.72 1.755,0 2.971,0.983 2.971,3.193 v 1.609 c -0.918,-1.228 -2.269,-1.965 -3.997,-1.965 -4.132,0 -6.294,3.083 -6.294,7.039 0,3.929 2.323,7.12 6.105,7.12 1.728,0 3.079,-0.6 4.024,-1.718 L 2.916,10.94 c -0.026,0.191 0.136,0.354 0.325,0.354 H 6.59 c 0.189,0 0.351,-0.163 0.351,-0.354 L 6.832,4.065 6.941,-2.373 C 6.995,-5.92 4.618,-8.211 0.027,-8.211" /></g><g
           transform="translate(186.3444,71.5875)"
           id="g1253"><path
             id="path1255"
             style="fill:#203f41;fill-opacity:1;fill-rule:nonzero;stroke:none"
             d="m 0,0 c -0.189,0 -0.352,0.164 -0.352,0.355 l 0.136,6.683 -0.136,6.657 c 0,0.191 0.163,0.355 0.352,0.355 h 3.376 c 0.188,0 0.351,-0.164 0.324,-0.355 L 3.619,11.676 c 1.08,1.665 2.944,2.483 4.97,2.483 0.162,0 0.351,-0.027 0.512,-0.055 0.189,-0.026 0.352,-0.218 0.352,-0.409 V 11.377 C 9.453,11.186 9.317,11.05 9.101,11.05 8.967,11.076 8.831,11.076 8.696,11.076 5.833,11.076 3.7,9.466 3.727,6.248 L 3.78,0.355 C 3.78,0.164 3.619,0 3.43,0 Z" /></g><g
           transform="translate(197.7664,87.0019)"
           id="g1257"><path
             id="path1259"
             style="fill:#203f41;fill-opacity:1;fill-rule:nonzero;stroke:none"
             d="m 0,0 c -0.189,0 -0.351,0.163 -0.351,0.354 v 2.974 c 0,0.191 0.162,0.355 0.351,0.355 h 3.404 c 0.188,0 0.35,-0.164 0.35,-0.355 V 0.354 C 3.754,0.163 3.592,0 3.404,0 Z m -0.054,-15.415 c -0.189,0 -0.351,0.165 -0.351,0.356 l 0.162,6.656 -0.162,6.684 c 0,0.19 0.162,0.355 0.351,0.355 h 3.511 c 0.19,0 0.352,-0.165 0.352,-0.355 l -0.162,-6.684 0.162,-6.656 c 0,-0.191 -0.162,-0.356 -0.352,-0.356 z" /></g><g
           transform="translate(210.6755,71.2334)"
           id="g1261"><path
             id="path1263"
             style="fill:#203f41;fill-opacity:1;fill-rule:nonzero;stroke:none"
             d="m 0,0 c -4.457,0 -7.104,2.864 -7.104,7.338 0,4.475 2.647,7.421 7.184,7.421 3.539,0 5.835,-1.992 6.213,-4.993 C 6.319,9.575 6.157,9.411 5.968,9.411 H 2.943 C 2.727,9.411 2.538,9.548 2.511,9.766 2.188,11.267 1.215,12.004 0.08,12.004 -1.972,11.976 -2.944,10.476 -2.944,7.365 -2.944,4.146 -1.945,2.756 0.08,2.727 1.431,2.7 2.43,3.629 2.646,5.401 2.673,5.619 2.835,5.756 3.052,5.756 h 3.105 c 0.19,0 0.352,-0.164 0.325,-0.355 C 6.13,2.264 3.592,0 0,0" /></g><g
           transform="translate(223.7708,71.2602)"
           id="g1265"><path
             id="path1267"
             style="fill:#203f41;fill-opacity:1;fill-rule:nonzero;stroke:none"
             d="m 0,0 c -2.943,0 -4.807,2.019 -4.807,5.457 v 2.945 l -0.109,5.621 c 0,0.191 0.163,0.354 0.352,0.354 h 3.402 c 0.19,0 0.352,-0.163 0.352,-0.354 L -0.918,8.402 V 5.511 C -0.918,3.983 0.027,3 1.242,3 2.701,3 4.268,4.365 4.268,7.365 v 1.037 l -0.054,5.621 c 0,0.191 0.161,0.354 0.35,0.354 h 3.458 c 0.189,0 0.351,-0.163 0.351,-0.354 L 8.211,7.638 8.319,0.682 C 8.319,0.491 8.157,0.327 7.968,0.327 H 4.753 C 4.564,0.327 4.402,0.491 4.43,0.682 L 4.484,2.101 C 3.538,0.873 1.944,0 0,0" /></g><g
           transform="translate(234.8953,71.5875)"
           id="g1269"><path
             id="path1271"
             style="fill:#203f41;fill-opacity:1;fill-rule:nonzero;stroke:none"
             d="m 0,0 c -0.189,0 -0.351,0.164 -0.351,0.355 l 0.189,9.194 -0.189,9.193 c 0,0.191 0.162,0.355 0.351,0.355 h 3.404 c 0.188,0 0.35,-0.164 0.35,-0.355 L 3.565,9.549 3.754,0.355 C 3.754,0.164 3.592,0 3.404,0 Z" /></g><g
           transform="translate(249.4515,72.2153)"
           id="g1273"><path
             id="path1275"
             style="fill:#203f41;fill-opacity:1;fill-rule:nonzero;stroke:none"
             d="M 0,0 C 0,-0.218 -0.135,-0.409 -0.324,-0.464 -1.08,-0.71 -1.945,-0.9 -2.755,-0.9 c -2.349,0 -4.591,1.199 -4.591,4.392 l 0.027,7.038 h -1.459 c -0.189,0 -0.351,0.165 -0.351,0.355 v 2.183 c 0,0.191 0.162,0.354 0.351,0.354 h 1.432 L -7.4,16.587 c 0,0.191 0.162,0.355 0.351,0.355 h 3.457 c 0.189,0 0.351,-0.164 0.351,-0.355 l -0.053,-3.165 h 2.97 c 0.189,0 0.351,-0.163 0.351,-0.354 v -2.183 c 0,-0.19 -0.162,-0.355 -0.351,-0.355 H -3.322 L -3.294,3.6 c 0,-1.199 0.594,-1.581 1.485,-1.581 0.594,0 1.08,0.109 1.458,0.191 C -0.162,2.264 0,2.128 0,1.964 Z" /></g><g
           transform="translate(256.0127,71.2602)"
           id="g1277"><path
             id="path1279"
             style="fill:#203f41;fill-opacity:1;fill-rule:nonzero;stroke:none"
             d="m 0,0 c -2.943,0 -4.807,2.019 -4.807,5.457 v 2.945 l -0.108,5.621 c 0,0.191 0.162,0.354 0.351,0.354 h 3.402 c 0.19,0 0.352,-0.163 0.352,-0.354 L -0.918,8.402 V 5.511 C -0.918,3.983 0.027,3 1.243,3 2.701,3 4.268,4.365 4.268,7.365 v 1.037 l -0.054,5.621 c 0,0.191 0.161,0.354 0.35,0.354 h 3.458 c 0.189,0 0.351,-0.163 0.351,-0.354 L 8.211,7.638 8.319,0.682 C 8.319,0.491 8.157,0.327 7.968,0.327 H 4.753 C 4.564,0.327 4.402,0.491 4.43,0.682 L 4.484,2.101 C 3.538,0.873 1.944,0 0,0" /></g><g
           transform="translate(267.0026,71.5875)"
           id="g1281"><path
             id="path1283"
             style="fill:#203f41;fill-opacity:1;fill-rule:nonzero;stroke:none"
             d="m 0,0 c -0.189,0 -0.351,0.164 -0.351,0.355 l 0.135,6.683 -0.135,6.657 c 0,0.191 0.162,0.355 0.351,0.355 h 3.376 c 0.189,0 0.351,-0.164 0.324,-0.355 L 3.619,11.676 c 1.08,1.665 2.944,2.483 4.97,2.483 0.162,0 0.351,-0.027 0.512,-0.055 0.19,-0.026 0.352,-0.218 0.352,-0.409 V 11.377 C 9.453,11.186 9.317,11.05 9.101,11.05 8.967,11.076 8.831,11.076 8.696,11.076 5.833,11.076 3.7,9.466 3.727,6.248 L 3.78,0.355 C 3.78,0.164 3.619,0 3.43,0 Z" /></g><g
           transform="translate(284.0158,74.0432)"
           id="g1285"><path
             id="path1287"
             style="fill:#203f41;fill-opacity:1;fill-rule:nonzero;stroke:none"
             d="M 0,0 C 1.972,0 3.025,1.5 3.052,4.473 3.078,7.475 2.025,9.112 0.08,9.139 -1.973,9.193 -3.026,7.638 -3.026,4.746 -3.026,1.581 -1.945,-0.027 0,0 m 3.268,-2.455 c -0.19,0 -0.352,0.163 -0.352,0.354 l 0.055,1.283 c -0.972,-1.201 -2.35,-1.91 -4.106,-1.91 -3.943,0 -6.023,3.164 -6.023,7.256 0,4.065 2.323,7.339 6.105,7.339 1.728,0 3.078,-0.627 4.024,-1.773 L 2.916,11.24 c -0.027,0.19 0.136,0.354 0.325,0.354 h 3.43 c 0.189,0 0.351,-0.164 0.351,-0.354 L 6.86,4.556 7.022,-2.101 c 0,-0.191 -0.162,-0.354 -0.351,-0.354 z" /></g><g
           transform="translate(293.7355,71.5875)"
           id="g1289"><path
             id="path1291"
             style="fill:#203f41;fill-opacity:1;fill-rule:nonzero;stroke:none"
             d="m 0,0 c -0.189,0 -0.351,0.164 -0.351,0.355 l 0.189,9.194 -0.189,9.193 c 0,0.191 0.162,0.355 0.351,0.355 h 3.404 c 0.188,0 0.35,-0.164 0.35,-0.355 L 3.565,9.549 3.754,0.355 C 3.754,0.164 3.592,0 3.404,0 Z" /></g><g
           transform="translate(313.0169,87.6564)"
           id="g1293"><path
             id="path1295"
             style="fill:#203f41;fill-opacity:1;fill-rule:nonzero;stroke:none"
             d="m 0,0 h -3.348 l -0.163,-6.411 h 3.619 c 1.593,0 2.944,0.928 2.944,3.22 C 3.052,-1.009 1.944,0 0,0 m -0.189,-9.439 h -3.268 l 0.162,-6.275 c 0,-0.191 -0.162,-0.355 -0.351,-0.355 h -3.592 c -0.189,0 -0.351,0.164 -0.351,0.355 l 0.216,9.193 -0.216,9.195 c 0,0.19 0.162,0.354 0.351,0.354 h 7.076 c 4.564,0 7.184,-2.073 7.184,-6.138 0,-4.011 -2.701,-6.329 -7.211,-6.329" /></g><g
           transform="translate(328.0856,74.0432)"
           id="g1297"><path
             id="path1299"
             style="fill:#203f41;fill-opacity:1;fill-rule:nonzero;stroke:none"
             d="M 0,0 C 1.972,0 3.025,1.5 3.052,4.473 3.078,7.475 2.025,9.112 0.08,9.139 -1.973,9.193 -3.026,7.638 -3.026,4.746 -3.026,1.581 -1.945,-0.027 0,0 m 3.268,-2.455 c -0.19,0 -0.352,0.163 -0.352,0.354 l 0.055,1.283 c -0.972,-1.201 -2.35,-1.91 -4.106,-1.91 -3.943,0 -6.023,3.164 -6.023,7.256 0,4.065 2.322,7.339 6.105,7.339 1.728,0 3.078,-0.627 4.024,-1.773 L 2.916,11.24 c -0.027,0.19 0.136,0.354 0.325,0.354 h 3.43 c 0.189,0 0.351,-0.164 0.351,-0.354 L 6.86,4.556 7.022,-2.101 c 0,-0.191 -0.162,-0.354 -0.351,-0.354 z" /></g><g
           transform="translate(337.6707,71.5875)"
           id="g1301"><path
             id="path1303"
             style="fill:#203f41;fill-opacity:1;fill-rule:nonzero;stroke:none"
             d="m 0,0 c -0.189,0 -0.352,0.164 -0.352,0.355 l 0.136,6.683 -0.136,6.657 c 0,0.191 0.163,0.355 0.352,0.355 h 3.376 c 0.188,0 0.351,-0.164 0.324,-0.355 L 3.619,11.676 c 1.08,1.665 2.944,2.483 4.969,2.483 0.163,0 0.352,-0.027 0.513,-0.055 0.189,-0.026 0.351,-0.218 0.351,-0.409 V 11.377 C 9.452,11.186 9.317,11.05 9.101,11.05 8.967,11.076 8.832,11.076 8.696,11.076 5.833,11.076 3.7,9.466 3.727,6.248 L 3.781,0.355 C 3.781,0.164 3.619,0 3.43,0 Z" /></g><g
           transform="translate(357.2756,72.2153)"
           id="g1305"><path
             id="path1307"
             style="fill:#203f41;fill-opacity:1;fill-rule:nonzero;stroke:none"
             d="M 0,0 C 0,-0.218 -0.136,-0.409 -0.325,-0.464 -1.081,-0.71 -1.945,-0.9 -2.755,-0.9 c -2.35,0 -4.591,1.199 -4.591,4.392 l 0.026,7.038 h -1.458 c -0.189,0 -0.351,0.165 -0.351,0.355 v 2.183 c 0,0.191 0.162,0.354 0.351,0.354 h 1.432 l -0.055,3.165 c 0,0.191 0.163,0.355 0.352,0.355 h 3.457 c 0.188,0 0.351,-0.164 0.351,-0.355 l -0.054,-3.165 h 2.97 c 0.189,0 0.352,-0.163 0.352,-0.354 v -2.183 c 0,-0.19 -0.163,-0.355 -0.352,-0.355 H -3.322 L -3.295,3.6 c 0,-1.199 0.594,-1.581 1.485,-1.581 0.594,0 1.08,0.109 1.458,0.191 C -0.162,2.264 0,2.128 0,1.964 Z" /></g><g
           transform="translate(359.3802,71.5875)"
           id="g1309"><path
             id="path1311"
             style="fill:#203f41;fill-opacity:1;fill-rule:nonzero;stroke:none"
             d="m 0,0 c -0.189,0 -0.351,0.164 -0.351,0.355 l 0.162,6.384 -0.108,6.956 c 0,0.191 0.161,0.355 0.35,0.355 h 3.215 c 0.189,0 0.352,-0.164 0.324,-0.355 L 3.538,12.276 c 0.946,1.228 2.539,2.101 4.484,2.101 2.943,0 4.807,-2.019 4.807,-5.456 V 5.975 l 0.108,-5.62 C 12.937,0.164 12.775,0 12.586,0 H 9.183 C 8.994,0 8.831,0.164 8.831,0.355 l 0.109,5.62 v 2.891 c 0,1.528 -0.946,2.511 -2.161,2.511 -1.459,0 -3.025,-1.365 -3.025,-4.365 V 5.975 L 3.809,0.355 C 3.809,0.164 3.646,0 3.457,0 Z" /></g><g
           transform="translate(381.2279,83.2914)"
           id="g1313"><path
             id="path1315"
             style="fill:#203f41;fill-opacity:1;fill-rule:nonzero;stroke:none"
             d="M 0,0 C -1.621,0 -2.593,-0.982 -2.917,-2.919 H 2.782 C 2.619,-1.419 1.782,0 0,0 m 6.401,-6.956 c 0.189,0 0.324,-0.165 0.297,-0.356 -0.378,-2.536 -2.81,-4.746 -6.645,-4.746 -4.644,0 -7.157,3.083 -7.157,7.338 0,4.475 2.647,7.421 7.076,7.421 4.538,0 7.077,-3.028 7.185,-7.858 0,-0.189 -0.162,-0.354 -0.352,-0.354 h -9.831 c 0.163,-2.647 1.188,-3.819 3.134,-3.819 1.323,0 2.296,0.6 2.674,2.018 0.053,0.219 0.242,0.356 0.459,0.356 z" /></g><g
           transform="translate(390.4613,71.5875)"
           id="g1317"><path
             id="path1319"
             style="fill:#203f41;fill-opacity:1;fill-rule:nonzero;stroke:none"
             d="m 0,0 c -0.189,0 -0.352,0.164 -0.352,0.355 l 0.135,6.683 -0.135,6.657 c 0,0.191 0.163,0.355 0.352,0.355 h 3.376 c 0.188,0 0.351,-0.164 0.323,-0.355 l -0.08,-2.019 c 1.08,1.665 2.943,2.483 4.97,2.483 0.161,0 0.351,-0.027 0.512,-0.055 0.189,-0.026 0.352,-0.218 0.352,-0.409 v -2.318 c 0,-0.191 -0.136,-0.327 -0.352,-0.327 -0.134,0.026 -0.27,0.026 -0.405,0.026 -2.863,0 -4.997,-1.61 -4.969,-4.828 L 3.78,0.355 C 3.78,0.164 3.619,0 3.43,0 Z" /></g><g
           transform="translate(407.6635,71.2602)"
           id="g1321"><path
             id="path1323"
             style="fill:#203f41;fill-opacity:1;fill-rule:nonzero;stroke:none"
             d="m 0,0 c -3.809,0 -6.752,1.61 -6.968,4.692 0,0.191 0.163,0.355 0.352,0.355 h 3.212 c 0.216,0 0.379,-0.136 0.405,-0.355 0.136,-1.5 1.135,-2.155 2.999,-2.155 1.594,0 2.458,0.628 2.458,1.719 0,2.674 -9.102,0.082 -9.102,5.975 0,2.918 2.323,4.474 6.077,4.474 3.619,0 6.05,-1.446 6.346,-4.311 C 5.807,10.203 5.645,10.04 5.456,10.04 H 2.404 c -0.216,0 -0.378,0.137 -0.431,0.354 -0.245,1.119 -1,1.828 -2.594,1.828 -1.324,0 -2.161,-0.491 -2.161,-1.692 0,-2.674 9.102,0.056 9.102,-5.92 C 6.32,1.664 3.565,0 0,0" /></g><g
           transform="translate(423.0287,82.9641)"
           id="g1325"><path
             id="path1327"
             style="fill:#203f41;fill-opacity:1;fill-rule:nonzero;stroke:none"
             d="m 0,0 c -1.323,0 -2.782,-1.091 -3.187,-3.192 l 0.162,-7.83 c 0,-0.19 -0.162,-0.355 -0.351,-0.355 h -3.403 c -0.189,0 -0.351,0.165 -0.351,0.355 l 0.189,9.221 -0.189,9.166 c 0,0.191 0.162,0.355 0.351,0.355 h 3.403 c 0.189,0 0.351,-0.164 0.351,-0.355 L -3.159,1.091 C -2.188,2.346 -0.783,3 1.08,3 4.214,3 6.131,1.119 6.05,-3.001 l -0.054,-3.001 0.162,-5.02 c 0,-0.19 -0.162,-0.355 -0.351,-0.355 H 2.296 c -0.189,0 -0.352,0.165 -0.352,0.355 L 2.107,-6.057 2.052,-2.51 C 2.026,-0.819 1.108,0 0,0" /></g><g
           transform="translate(431.8842,87.0019)"
           id="g1329"><path
             id="path1331"
             style="fill:#203f41;fill-opacity:1;fill-rule:nonzero;stroke:none"
             d="m 0,0 c -0.189,0 -0.352,0.163 -0.352,0.354 v 2.974 c 0,0.191 0.163,0.355 0.352,0.355 h 3.403 c 0.189,0 0.351,-0.164 0.351,-0.355 V 0.354 C 3.754,0.163 3.592,0 3.403,0 Z m -0.054,-15.415 c -0.189,0 -0.351,0.165 -0.351,0.356 l 0.162,6.656 -0.162,6.684 c 0,0.19 0.162,0.355 0.351,0.355 h 3.511 c 0.189,0 0.352,-0.165 0.352,-0.355 l -0.163,-6.684 0.163,-6.656 c 0,-0.191 -0.163,-0.356 -0.352,-0.356 z" /></g><g
           transform="translate(444.9823,74.07)"
           id="g1333"><path
             id="path1335"
             style="fill:#203f41;fill-opacity:1;fill-rule:nonzero;stroke:none"
             d="m 0,0 c 2.053,0 3.106,1.501 3.106,4.365 0,3.111 -1.053,4.692 -3.025,4.692 -1.972,0 -3.025,-1.5 -3.052,-4.419 C -2.998,1.665 -1.945,0 0,0 m 1.134,-2.756 c -1.675,0 -2.997,0.601 -3.943,1.692 l 0.082,-5.701 c 0,-0.191 -0.163,-0.356 -0.352,-0.356 H -6.59 c -0.189,0 -0.352,0.165 -0.352,0.356 l 0.163,9.984 -0.163,7.993 c 0,0.191 0.163,0.355 0.352,0.355 h 3.43 c 0.189,0 0.351,-0.164 0.324,-0.355 L -2.89,9.93 c 0.973,1.201 2.349,1.91 4.106,1.91 3.942,0 6.022,-3.164 6.022,-7.256 0,-4.065 -2.322,-7.34 -6.104,-7.34" /></g><g
           transform="translate(96.7329,74.8076)"
           id="g1337"><path
             id="path1339"
             style="fill:#203f41;fill-opacity:1;fill-rule:nonzero;stroke:none"
             d="m 0,0 c -1.101,-0.151 -2.211,-0.21 -3.321,-0.183 1.885,3.362 2.64,8.431 -2.45,9.913 -2.886,0.838 -5.1,1.769 -7.429,3.273 -4.916,3.176 -5.249,9.991 -5.249,9.991 0,0 7.022,2.444 11.997,-0.637 4.975,-3.078 5.957,-10.526 5.957,-10.526 0,0 -4.689,8.444 -14.001,8.085 C 0.946,14.322 1.191,4.062 0,0" /></g><g
           transform="translate(101.0081,95.6804)"
           id="g1341"><path
             id="path1343"
             style="fill:#203f41;fill-opacity:1;fill-rule:nonzero;stroke:none"
             d="m 0,0 c -3.372,-2.088 -4.036,-7.145 -4.036,-7.145 0,0 2.613,5.067 9.492,5.48 -3.542,-1.271 -6.632,-2.886 -8.209,-5.812 1.656,-0.344 4.555,-0.634 6.825,0.772 3.372,2.088 4.067,7.132 4.067,7.132 C 8.139,0.427 3.372,2.088 0,0" /></g><g
           transform="translate(123.9825,127.8118)"
           id="g1345"><path
             id="path1347"
             style="fill:#2b9061;fill-opacity:1;fill-rule:nonzero;stroke:none"
             d="m 0,0 c -2.728,2.647 -5.807,4.913 -9.122,6.747 -0.906,0.501 -1.83,0.99 -2.776,1.41 -3.995,1.813 -8.206,3.078 -12.554,3.655 -4.147,0.551 -8.36,0.51 -12.496,-0.125 -4.383,-0.671 -8.659,-2.022 -12.641,-3.985 -4.502,-2.221 -8.622,-5.228 -12.13,-8.84 -3.316,-3.414 -6.086,-7.368 -8.162,-11.666 -1.995,-4.13 -3.341,-8.579 -3.992,-13.127 -0.496,-3.474 -0.633,-7.046 -0.194,-10.533 0.907,-7.213 4.253,-14 9.378,-19.102 5.63,-5.605 13.222,-8.982 21.123,-9.366 8.251,-0.401 16.46,2.442 22.713,7.897 6.071,5.296 10.05,12.817 10.987,20.87 0.121,1.04 0.203,2.092 0.214,3.139 -0.081,-1.403 -0.243,-2.778 -0.559,-4.15 -0.32,-1.392 -0.802,-2.756 -1.411,-4.045 -1.683,-3.567 -4.357,-6.619 -7.669,-8.725 -3.123,-1.986 -6.785,-3.103 -10.48,-3.184 -3.849,-0.084 -7.699,0.933 -11.016,2.902 -2.084,1.24 -3.87,2.877 -5.465,4.702 -1.872,2.141 -3.464,4.53 -4.72,7.091 -2.564,5.228 -3.694,11.132 -3.262,16.951 0.435,5.899 2.477,11.638 5.871,16.459 3.301,4.69 7.827,8.475 13.016,10.851 5.158,2.361 10.956,3.263 16.593,2.682 C -13.101,7.926 -7.679,5.902 -3.074,2.529 -2.612,2.19 -2.163,1.846 -1.719,1.485 -1.07,0.957 -0.453,0.425 0.155,-0.151 0.103,-0.101 0.052,-0.05 0,0" /></g><g
           transform="translate(134.3316,87.1768)"
           id="g1349"><path
             id="path1351"
             style="fill:#a2d721;fill-opacity:1;fill-rule:nonzero;stroke:none"
             d="m 0,0 c 0.004,-6.161 -1.711,-12.289 -4.989,-17.517 -3.638,-5.801 -9.185,-10.421 -15.163,-13.592 -0.651,-0.346 -1.313,-0.675 -1.977,-0.988 -4.703,-2.122 -9.666,-3.522 -14.816,-3.944 -5.866,-0.481 -11.796,0.205 -17.395,2.048 -5.835,1.921 -11.266,5.111 -15.813,9.274 -4.1,3.754 -7.473,8.256 -9.95,13.255 -2.642,5.33 -4.155,11.229 -4.501,17.176 -0.025,0.433 -0.047,0.87 -0.053,1.304 0.279,-6.733 2.645,-13.307 6.725,-18.645 4.271,-5.586 10.317,-9.678 17.061,-11.543 7.612,-2.104 15.869,-1.296 22.934,2.26 6.311,3.177 11.49,8.413 14.606,14.802 1.716,3.519 2.814,7.346 3.184,11.251 0.237,2.505 0.217,5.018 -0.294,7.486 -0.099,0.474 -0.223,0.959 -0.347,1.416 -1.534,5.511 -5.417,10.2 -10.441,12.818 -4.989,2.598 -10.985,2.98 -16.27,1.092 -2.688,-0.961 -5.106,-2.481 -7.205,-4.423 4.572,4.474 10.468,7.426 16.71,8.544 1.476,0.265 2.972,0.428 4.475,0.483 4.412,0.162 8.81,-0.579 12.893,-2.179 3.406,-1.333 6.591,-3.244 9.382,-5.675 C -5.225,19.463 -1.261,12.061 -0.258,4.094 -0.086,2.735 -0.001,1.367 0,0" /></g><g
           transform="translate(137.7713,96.3383)"
           id="g1353"><path
             id="path1355"
             style="fill:#203f41;fill-opacity:1;fill-rule:nonzero;stroke:none"
             d="m 0,0 c -0.125,6.227 -1.532,12.422 -4.169,18.07 -3.548,7.598 -9.273,14.562 -16.74,18.455 -7.757,4.043 -17.021,4.77 -25.288,1.94 -4.589,-1.571 -8.788,-4.174 -12.199,-7.547 -2.376,-2.351 -4.376,-5.091 -5.941,-8.047 -5.207,-9.839 -5.048,-22.018 0.497,-31.599 1.333,-2.303 2.923,-4.477 4.771,-6.386 -2.834,3.181 -4.787,7.001 -5.39,11.26 -0.613,4.339 0.146,8.842 2.176,12.719 1.949,3.722 5.054,6.717 8.496,9.038 3.588,2.418 7.649,4.105 11.885,4.929 8.622,1.677 17.745,-0.302 24.897,-5.455 6.897,-4.97 11.67,-12.625 13.104,-21.066 0.061,-0.36 0.118,-0.718 0.165,-1.078 0.098,-0.758 0.179,-1.512 0.227,-2.272 0.124,-1.954 0.082,-3.914 -0.139,-5.853 -0.649,-5.71 -2.766,-11.234 -6.211,-15.878 -0.664,-0.896 -1.385,-1.717 -2.104,-2.568 2.889,2.998 5.305,6.546 7.184,10.264 1.985,3.924 3.374,8.15 4.129,12.489 C -0.157,-5.75 0.058,-2.872 0,0" /></g><path
           id="path1357"
           style="fill:#f9ae0c;fill-opacity:1;fill-rule:nonzero;stroke:none"
           d="M 851.771,41.996 H 709.598 v -1.724 h 142.173 z" /><g
           transform="translate(860.3585,67.6299)"
           id="g1359"><path
             id="path1361"
             style="fill:#19336e;fill-opacity:1;fill-rule:evenodd;stroke:none"
             d="M 0,0 C 0.076,0.178 0.336,1.059 0.64,1.059 0.866,1.059 1.165,0.142 1.24,0 l 2.558,-6.008 c 0,-0.068 0.264,-0.634 0.264,-0.776 0,-0.388 -0.867,-0.281 -1.093,-0.281 h -4.325 c -0.151,0 -1.354,-0.141 -1.354,0.21 0,0.108 0.075,0.32 0.112,0.425 z m 12.682,-15.313 c 0.219,-0.196 0.149,-0.733 -0.073,-0.831 -0.491,0.021 -0.13,0.035 -0.555,0.046 v -0.005 c -1.285,0.039 -2.568,0.128 -3.854,0.128 -1.009,0 -2.062,-0.084 -3.105,-0.121 0,0 -0.877,-0.034 -1.371,-0.052 -0.219,0.102 -0.296,0.632 -0.075,0.829 l 0.891,0.07 c 0.258,0.014 0.555,0.044 0.555,0.044 0.895,0.077 1.856,0.132 1.856,1.009 0,0.493 -0.331,1.263 -0.516,1.717 L 5.263,-9.826 C 4.492,-8.04 4.747,-8.04 2.987,-8.04 h -4.992 c -1.468,0 -1.247,-0.141 -1.795,-1.397 l -1.102,-2.624 c -0.22,-0.562 -0.516,-1.295 -0.516,-1.923 0,-0.94 1.064,-1.089 1.913,-1.182 0,0 0.318,-0.033 0.503,-0.046 l 0.922,-0.107 c 0.224,-0.197 0.148,-0.727 -0.071,-0.832 -0.491,0.021 -1.372,0.048 -1.372,0.048 -0.815,0.044 -1.628,0.128 -2.446,0.128 -0.968,0 -1.938,-0.123 -2.909,-0.134 0,0 -0.874,-0.035 -1.37,-0.048 -0.217,0.098 -0.297,0.627 -0.073,0.831 l 0.87,0.084 c 0.192,0.023 0.591,0.057 0.591,0.057 0.51,0.057 0.985,0.126 1.352,0.5 0.477,0.489 1.135,2.099 1.393,2.763 L 0.966,5.594 c 0.112,0.275 0.224,0.77 0.628,0.77 0.29,0 0.441,-0.461 0.514,-0.669 l 7.414,-17.548 c 0.532,-1.233 1.091,-2.971 2.532,-3.288 0.158,-0.028 0.32,-0.051 0.503,-0.071 z" /></g><g
           transform="translate(841.71,68.4929)"
           id="g1363"><path
             id="path1365"
             style="fill:#19336e;fill-opacity:1;fill-rule:nonzero;stroke:none"
             d="M 0,0 C 0,3.528 -0.073,4.094 -2.194,4.263 L -3.097,4.329 C -3.311,4.462 -3.243,5.06 -3.021,5.161 -1.224,5.099 0,5.06 1.509,5.06 2.952,5.06 4.172,5.099 5.971,5.161 6.19,5.06 6.259,4.462 6.044,4.329 L 5.142,4.263 C 3.021,4.094 2.952,3.528 2.952,0 v -11.86 c 0,-3.53 0.069,-3.996 2.19,-4.229 l 0.902,-0.1 c 0.215,-0.135 0.146,-0.733 -0.073,-0.831 -1.799,0.061 -3.019,0.098 -4.462,0.098 -1.509,0 -2.733,-0.037 -4.53,-0.098 -0.222,0.098 -0.29,0.627 -0.076,0.831 l 0.903,0.1 C -0.073,-15.856 0,-15.39 0,-11.86 Z" /></g><g
           transform="translate(823.1,57.1534)"
           id="g1367"><path
             id="path1369"
             style="fill:#19336e;fill-opacity:1;fill-rule:nonzero;stroke:none"
             d="m 0,0 c 0,-1.212 0.078,-2.93 0.82,-3.669 0.742,-0.77 1.913,-0.941 3.08,-0.941 3.473,0 6.129,1.349 6.129,4.711 0,2.662 -1.56,5.754 -7.766,5.754 C 0.155,5.855 0,5.656 0,4.978 Z M 0,7.809 C 0,6.864 0.036,6.8 2.025,6.864 c 3.983,0.135 6.129,1.144 6.129,4.304 0,3.298 -2.85,4.549 -5.813,4.549 -0.859,0 -1.446,-0.071 -1.798,-0.206 C 0.155,15.413 0,15.242 0,14.635 Z m -3.202,4.469 c 0,2.494 -0.159,3.135 -1.913,3.27 l -1.249,0.121 c -0.141,0.126 -0.219,0.804 0.039,0.817 2.108,0.163 4.761,0.268 8.394,0.268 2.457,0 4.797,-0.167 6.553,-0.939 1.679,-0.705 2.966,-2.053 2.966,-4.206 0,-2.423 -1.637,-3.667 -3.977,-4.61 0,-0.336 0.31,-0.441 0.742,-0.502 2.107,-0.341 5.226,-2.021 5.226,-5.62 0,-3.905 -3.356,-6.531 -10.382,-6.531 -1.128,0 -3.042,0.101 -4.684,0.101 -1.715,0 -3.043,-0.066 -4.484,-0.101 -0.24,0.101 -0.315,0.642 -0.08,0.841 l 0.701,0.105 c 2.071,0.299 2.148,0.671 2.148,4.201 z" /></g><g
           transform="translate(812.9594,52.4108)"
           id="g1371"><path
             id="path1373"
             style="fill:#19336e;fill-opacity:1;fill-rule:nonzero;stroke:none"
             d="m 0,0 c -0.185,0.021 -0.53,0.043 -0.53,0.043 -0.379,0.042 -0.721,0.096 -0.988,0.389 -0.466,0.491 -0.428,1.911 -0.428,2.477 v 14.594 c 0,0.641 -0.155,2.018 0.309,2.511 0.235,0.261 0.721,0.304 1.151,0.331 0.267,0.021 0.269,0.021 0.502,0.028 l 0.927,0.073 C 1.16,20.581 1.091,21.181 0.868,21.277 0.374,21.256 -0.073,21.263 -0.507,21.25 h -3.927 c -0.427,0 -0.816,0 -1.051,-0.457 l -8.01,-16.685 -7.074,16.119 c -0.233,0.566 -0.272,1.023 -1.01,1.023 h -4.092 c -0.429,0.013 -0.897,0.006 -1.392,0.027 -0.222,-0.096 -0.295,-0.696 -0.073,-0.831 l 0.927,-0.073 c 0.189,-0.014 0.534,-0.034 0.534,-0.034 1.532,-0.099 1.628,-0.443 1.489,-2.053 l -1.206,-15.66 c -0.107,-1.576 -0.189,-2.407 -1.836,-2.555 0,0 -0.349,-0.046 -0.539,-0.064 L -28.691,-0.1 c -0.222,-0.197 -0.149,-0.727 0.073,-0.825 0.488,0.014 1.354,0.041 1.354,0.041 0.835,0.044 1.685,0.114 2.534,0.114 0.918,0 1.839,-0.084 2.756,-0.12 v -0.007 c 0.423,-0.01 0.875,-0.028 1.368,-0.041 0.224,0.098 0.297,0.634 0.073,0.831 l -0.925,0.1 c -0.242,0.021 -0.513,0.046 -0.513,0.046 -2.377,0.167 -2.322,1.838 -2.176,3.893 l 1.126,14.562 h 0.278 l 7.656,-17.921 c 0.078,-0.249 0.194,-0.673 0.582,-0.673 0.352,0 0.466,0.388 0.587,0.634 l 8.625,18.387 h 0.276 V 2.909 c 0,-0.637 0.078,-1.947 -0.584,-2.443 -0.345,-0.254 -1.471,-0.409 -1.471,-0.409 -0.153,-0.023 -0.313,-0.05 -0.5,-0.064 l -0.922,-0.1 c -0.222,-0.204 -0.149,-0.733 0.073,-0.831 0.488,0.013 1.349,0.041 1.349,0.041 1.258,0.034 2.528,0.127 3.802,0.127 0.918,0 2.71,-0.084 2.71,-0.084 0.427,-0.016 0.916,-0.064 1.409,-0.078 0.222,0.099 0.297,0.628 0.076,0.832 z" /></g><g
           transform="translate(778.8563,65.2734)"
           id="g1375"><path
             id="path1377"
             style="fill:#19336e;fill-opacity:1;fill-rule:nonzero;stroke:none"
             d="M 0,0 C 0,2.069 -0.073,5.896 -0.676,6.896 -0.922,7.293 -1.557,7.531 -2.441,7.597 L -3.322,7.659 C -3.535,7.892 -3.464,8.332 -3.252,8.465 -1.909,8.394 -0.6,8.36 0.776,8.36 2.258,8.36 3.211,8.394 4.482,8.46 4.763,8.296 4.729,7.864 4.551,7.659 L 3.706,7.597 C 2.822,7.531 2.153,7.229 1.941,6.8 1.445,5.697 1.445,1.863 1.445,0 v -3.763 c 0,-2.9 -0.493,-5.965 -2.47,-7.965 -1.521,-1.566 -4.133,-2.427 -6.745,-2.427 -2.439,0 -4.876,0.429 -6.604,1.827 -1.873,1.47 -2.754,3.9 -2.754,7.866 v 7.857 c 0,3.467 -0.071,4.033 -2.117,4.202 l -0.883,0.062 c -0.213,0.134 -0.147,0.701 0.066,0.806 1.77,-0.071 2.97,-0.105 4.382,-0.105 1.447,0 2.612,0.034 4.34,0.1 0.213,-0.1 0.284,-0.667 0.071,-0.801 l -0.847,-0.062 c -2.048,-0.169 -2.117,-0.735 -2.117,-4.202 v -7.192 c 0,-5.366 1.766,-8.897 7.168,-8.897 5.12,0 7.065,3.798 7.065,8.86 z" /></g><g
           transform="translate(743.5408,68.5546)"
           id="g1379"><path
             id="path1381"
             style="fill:#19336e;fill-opacity:1;fill-rule:nonzero;stroke:none"
             d="m 0,0 c 0,3.505 -0.073,4.033 -2.382,4.202 l -0.913,0.066 c -0.224,0.132 -0.151,0.73 0.068,0.831 2.056,-0.062 3.3,-0.101 4.766,-0.101 1.432,0 2.676,0.039 4.51,0.101 C 6.268,4.998 6.341,4.4 6.122,4.268 L 5.238,4.202 C 3.078,4.033 3.005,3.505 3.005,0 v -11.591 c 0,-2.098 0.11,-2.964 0.769,-3.591 0.402,-0.368 1.097,-0.77 3.994,-0.77 3.117,0 3.887,0.132 4.471,0.429 0.735,0.402 1.688,1.603 2.418,3.304 0.222,0.163 0.918,0.028 0.918,-0.205 0,-0.368 -1.027,-3.763 -1.539,-4.658 -1.872,0.061 -5.352,0.098 -9.124,0.098 H 1.539 c -1.539,0 -2.71,-0.037 -4.766,-0.098 -0.219,0.098 -0.292,0.628 -0.068,0.831 l 1.098,0.1 C -0.073,-15.952 0,-15.488 0,-11.99 Z" /></g><g
           transform="translate(735.8912,61.709)"
           id="g1383"><path
             id="path1385"
             style="fill:#19336e;fill-opacity:1;fill-rule:nonzero;stroke:none"
             d="m 0,0 c 0,5.498 -2.551,11.429 -9.234,11.429 -3.64,0 -8.357,-2.364 -8.357,-9.664 0,-4.93 2.516,-11.326 9.407,-11.326 C -3.985,-9.561 0,-6.563 0,0 m -21.09,0.699 c 0,6.663 5.245,11.762 12.454,11.762 8.074,0 12.137,-5.563 12.137,-11.431 0,-6.729 -5.387,-11.621 -12.137,-11.621 -7.766,0 -12.454,5.293 -12.454,11.29" /></g><g
           transform="translate(692.7254,75.4187)"
           id="g1387"><path
             id="path1389"
             style="fill:#19336e;fill-opacity:1;fill-rule:nonzero;stroke:none"
             d="m 0,0 c 2.945,2.295 6.7,3.418 10.901,3.418 2.176,0 5.245,-0.441 7.143,-0.966 0.484,-0.123 0.767,-0.201 1.13,-0.157 0.039,-0.925 0.24,-3.46 0.566,-5.917 -0.205,-0.283 -0.81,-0.317 -1.091,-0.077 -0.605,2.731 -2.423,5.873 -8.275,5.873 -6.175,0 -11.422,-3.905 -11.422,-12.228 0,-8.451 5.366,-13.116 11.986,-13.116 5.208,0 7.51,3.379 8.437,5.754 0.283,0.203 0.886,0.119 1.048,-0.162 -0.281,-2.091 -1.331,-4.745 -1.939,-5.508 -0.481,-0.084 -0.966,-0.239 -1.411,-0.404 -0.886,-0.324 -3.795,-0.924 -6.377,-0.924 -3.633,0 -7.102,0.721 -10.052,2.696 -3.229,2.213 -5.727,5.869 -5.727,11.059 0,4.466 2.014,8.286 5.083,10.659" /></g><g
           transform="translate(833.6653,93.5994)"
           id="g1391"><path
             id="path1393"
             style="fill:#19336e;fill-opacity:1;fill-rule:nonzero;stroke:none"
             d="m 0,0 c -1.719,0 -1.79,-0.066 -1.79,-1.066 v -4.698 c 0,-3.5 0.176,-3.964 2.185,-4.164 l 1.041,-0.101 c 0.213,-0.135 0.142,-0.731 -0.073,-0.833 -1.934,0.068 -3.153,0.102 -4.551,0.102 -1.543,0 -2.76,-0.066 -4.158,-0.102 -0.217,0.102 -0.29,0.634 -0.075,0.833 l 0.612,0.101 c 2.009,0.333 2.078,0.664 2.078,4.164 V 6.229 c 0,3.498 -0.249,4.062 -2.115,4.197 l -0.931,0.066 c -0.215,0.135 -0.146,0.735 0.07,0.834 1.759,-0.034 2.976,-0.099 4.519,-0.099 1.398,0 2.617,0.033 4.159,0.099 0.212,-0.099 0.285,-0.699 0.07,-0.834 L 0.359,10.426 C -1.719,10.227 -1.79,9.727 -1.79,6.229 V 2.4 C -1.79,1.365 -1.719,1.333 0,1.333 h 10.255 c 1.719,0 1.792,0.032 1.792,1.067 v 3.829 c 0,3.498 -0.073,3.998 -2.187,4.197 l -0.683,0.066 c -0.215,0.135 -0.146,0.735 0.076,0.834 1.646,-0.066 2.865,-0.099 4.333,-0.099 1.398,0 2.62,0.033 4.229,0.099 0.22,-0.099 0.29,-0.699 0.076,-0.834 L 17.139,10.426 C 15.059,10.227 14.984,9.727 14.984,6.229 V -5.764 c 0,-3.5 0.075,-3.931 2.155,-4.164 l 0.859,-0.101 c 0.212,-0.135 0.141,-0.731 -0.073,-0.833 -1.719,0.068 -2.941,0.102 -4.339,0.102 -1.468,0 -2.76,-0.034 -4.333,-0.102 -0.222,0.102 -0.291,0.634 -0.076,0.833 l 0.683,0.101 c 2.187,0.333 2.187,0.664 2.187,4.164 v 4.698 c 0,1 -0.073,1.066 -1.792,1.066 z" /></g><g
           transform="translate(813.8795,82.3967)"
           id="g1395"><path
             id="path1397"
             style="fill:#19336e;fill-opacity:1;fill-rule:nonzero;stroke:none"
             d="m 0,0 c -3.299,0 -5.387,0.868 -6.131,1.233 -0.475,0.733 -0.984,3.096 -1.064,4.665 0.199,0.233 0.788,0.299 0.947,0.098 0.59,-1.699 2.2,-4.964 6.76,-4.964 3.301,0 4.913,1.834 4.913,3.834 0,1.464 -0.351,3.096 -3.221,4.663 l -3.736,2.066 c -1.964,1.099 -4.245,2.998 -4.245,5.729 0,3.163 2.907,5.732 8.017,5.732 1.219,0 2.635,-0.203 3.653,-0.436 0.514,-0.133 1.065,-0.199 1.378,-0.199 0.354,-0.799 0.71,-2.665 0.71,-4.064 -0.16,-0.199 -0.786,-0.302 -0.985,-0.099 -0.509,1.596 -1.571,3.761 -5.345,3.761 -3.855,0 -4.676,-2.165 -4.676,-3.694 0,-1.934 1.886,-3.332 3.338,-4.099 L 3.459,12.561 C 5.939,11.26 8.373,9.328 8.373,6.163 8.373,2.498 5.11,0 0,0" /></g><g
           transform="translate(797.311,99.7623)"
           id="g1399"><path
             id="path1401"
             style="fill:#19336e;fill-opacity:1;fill-rule:nonzero;stroke:none"
             d="M 0,0 C 0,3.53 -0.075,4.096 -2.256,4.263 L -3.181,4.329 C -3.402,4.464 -3.329,5.065 -3.108,5.163 -1.258,5.097 0,5.065 1.553,5.065 3.03,5.065 4.288,5.097 6.135,5.163 6.362,5.065 6.435,4.464 6.213,4.329 L 5.286,4.263 C 3.105,4.096 3.03,3.53 3.03,0 v -11.86 c 0,-3.53 0.075,-3.998 2.256,-4.231 l 0.927,-0.101 c 0.222,-0.134 0.149,-0.73 -0.078,-0.833 -1.847,0.068 -3.105,0.103 -4.582,0.103 -1.553,0 -2.811,-0.035 -4.661,-0.103 -0.221,0.103 -0.294,0.634 -0.073,0.833 l 0.925,0.101 C -0.075,-15.858 0,-15.39 0,-11.86 Z" /></g><g
           transform="translate(782.4594,87.8359)"
           id="g1403"><path
             id="path1405"
             style="fill:#19336e;fill-opacity:1;fill-rule:nonzero;stroke:none"
             d="m 0,0 c 0,-3.501 0.071,-3.996 2.078,-4.165 l 1.11,-0.1 C 3.396,-4.4 3.329,-4.996 3.122,-5.099 c -1.978,0.069 -3.154,0.103 -4.54,0.103 -1.388,0 -2.599,-0.034 -4.816,-0.103 -0.208,0.103 -0.278,0.669 0,0.834 l 1.245,0.1 C -3.01,-3.996 -2.84,-3.501 -2.84,0 v 14.89 c 0,1.035 0,1.067 -1.04,1.067 h -1.906 c -1.489,0 -3.395,-0.067 -4.261,-0.834 -0.829,-0.733 -1.178,-1.464 -1.557,-2.297 -0.276,-0.201 -0.761,-0.034 -0.902,0.233 0.552,1.5 1.073,3.631 1.315,4.962 0.107,0.068 0.555,0.1 0.662,0 0.206,-1.066 1.348,-1.03 2.944,-1.03 H 6.446 c 1.873,0 2.181,0.064 2.701,0.932 0.176,0.066 0.558,0.032 0.624,-0.098 C 9.389,16.457 9.147,13.758 9.25,12.758 9.111,12.493 8.526,12.493 8.353,12.691 8.246,13.525 8.004,14.758 7.483,15.123 6.688,15.692 5.373,15.957 3.466,15.957 H 1.007 C -0.032,15.957 0,15.925 0,14.824 Z" /></g><g
           transform="translate(761.9476,99.7623)"
           id="g1407"><path
             id="path1409"
             style="fill:#19336e;fill-opacity:1;fill-rule:nonzero;stroke:none"
             d="M 0,0 C 0,3.53 -0.076,4.096 -2.256,4.263 L -3.181,4.329 C -3.405,4.464 -3.332,5.065 -3.106,5.163 -1.258,5.097 0,5.065 1.553,5.065 3.032,5.065 4.288,5.097 6.135,5.163 6.362,5.065 6.43,4.464 6.213,4.329 L 5.286,4.263 C 3.105,4.096 3.032,3.53 3.032,0 v -11.86 c 0,-3.53 0.073,-3.998 2.254,-4.231 l 0.927,-0.101 c 0.217,-0.134 0.149,-0.73 -0.078,-0.833 -1.847,0.068 -3.103,0.103 -4.582,0.103 -1.553,0 -2.811,-0.035 -4.659,-0.103 -0.226,0.103 -0.299,0.634 -0.075,0.833 l 0.925,0.101 C -0.076,-15.858 0,-15.39 0,-11.86 Z" /></g><g
           transform="translate(740.8029,101.5501)"
           id="g1411"><path
             id="path1413"
             style="fill:#19336e;fill-opacity:1;fill-rule:evenodd;stroke:none"
             d="m 0,0 c 0,2.498 0.075,2.857 3.078,2.857 3.514,0 5.686,-1.786 5.686,-5.069 0,-1.428 -0.512,-2.75 -1.818,-3.64 C 5.448,-6.889 3.829,-7.031 2.012,-7.031 1.34,-7.031 0,-7.282 0,-6.391 Z m 15.488,-17.98 c 0.224,-0.198 0.149,-0.73 -0.07,-0.833 -0.496,0.018 -0.939,0.032 -1.361,0.046 h -3.364 c -0.79,0 -1.025,0.678 -1.338,1.214 l -3.87,6.962 c -1.423,2.496 -1.384,2.784 -4.382,2.784 -0.32,0 -0.674,0.037 -0.87,-0.18 -0.238,-0.249 -0.199,-1.105 -0.199,-1.425 v -5.501 c 0,-2.142 -0.135,-2.765 2.08,-2.914 0,0 0.329,-0.032 0.519,-0.05 l 0.934,-0.087 c 0.226,-0.201 0.148,-0.735 -0.073,-0.833 -0.494,0.016 -0.943,0.03 -1.37,0.043 -1.199,0.037 -2.366,0.133 -3.59,0.133 -1.212,0 -2.427,-0.096 -3.644,-0.133 0,0 -0.873,-0.032 -1.368,-0.052 -0.221,0.102 -0.295,0.637 -0.073,0.836 l 0.929,0.093 c 0.19,0.021 0.523,0.057 0.523,0.057 2.197,0.194 2.014,0.82 2.014,2.907 v 14.602 c 0,2.284 0.105,2.782 -2.562,2.932 -0.747,0.042 -0.991,-0.12 -0.991,0.459 0,0.391 0.007,0.535 0.71,0.535 1.265,0 2.768,-0.06 4.028,-0.06 2.291,0 4.343,0.06 6.595,0.06 3.749,0 7.462,-1.676 7.462,-5.426 0,-3.249 -2.962,-5.14 -6.241,-5.532 1.263,-0.179 1.857,-1.427 2.409,-2.355 l 3.197,-5.569 c 0.637,-1.121 1.178,-2.324 2.535,-2.564 0.155,-0.025 0.324,-0.048 0.509,-0.067 z" /></g><g
           transform="translate(716.7905,89.3658)"
           id="g1415"><path
             id="path1417"
             style="fill:#19336e;fill-opacity:1;fill-rule:nonzero;stroke:none"
             d="m 0,0 c 0,-1.404 0.087,-3.393 0.913,-4.252 0.818,-0.897 2.117,-1.091 3.416,-1.091 3.855,0 6.798,1.559 6.798,5.462 0,3.078 -1.733,6.667 -8.613,6.667 C 0.174,6.786 0,6.551 0,5.773 Z M 0,9.049 C 0,7.956 0.043,7.878 2.254,7.956 c 4.411,0.155 6.795,1.326 6.795,4.991 0,3.823 -3.16,5.268 -6.448,5.268 -0.955,0 -1.606,-0.078 -1.994,-0.235 C 0.174,17.861 0,17.667 0,16.966 Z m -3.549,5.188 c 0,2.884 -0.201,3.649 -2.153,3.804 l -1.354,0.096 c -0.221,0.174 -0.157,0.957 0.043,0.973 2.337,0.21 5.284,0.313 9.308,0.313 2.726,0 5.325,-0.194 7.273,-1.091 1.865,-0.82 3.29,-2.38 3.29,-4.876 0,-2.811 -1.82,-4.252 -4.414,-5.345 0,-0.389 0.347,-0.505 0.82,-0.585 2.34,-0.388 5.802,-2.338 5.802,-6.512 0,-4.526 -3.724,-7.567 -11.513,-7.567 -1.258,0 -3.379,0.118 -5.195,0.118 -1.907,0 -3.377,-0.08 -4.978,-0.118 -0.262,0.118 -0.347,0.739 -0.089,0.977 l 0.779,0.116 c 2.295,0.35 2.381,0.781 2.381,4.875 z" /></g><g
           transform="translate(571.4661,54.0548)"
           id="g1419"><path
             id="path1421"
             style="fill:#ffffff;fill-opacity:1;fill-rule:nonzero;stroke:none"
             d="m 0,0 c 20.199,0 48.139,-11.374 68.409,-11.374 14.468,0 28.584,3.862 36.62,9.547 0.564,3.339 0.86,6.771 0.86,10.264 0,33.946 -27.519,61.466 -61.467,61.466 -33.948,0 -61.468,-27.52 -61.468,-61.466 0,-3.459 0.295,-6.85 0.84,-10.145 C -13.988,-1.299 -6.455,0 0,0" /></g><g
           transform="translate(655.5969,76.7043)"
           id="g1423"><path
             id="path1425"
             style="fill:#f9ae0c;fill-opacity:1;fill-rule:nonzero;stroke:none"
             d="m 0,0 2.432,-1.009 5.391,3.76 z" /></g><g
           transform="translate(565.0337,80.9035)"
           id="g1427"><path
             id="path1429"
             style="fill:#f9ae0c;fill-opacity:1;fill-rule:nonzero;stroke:none"
             d="M 0,0 -6.389,2.245 -6.067,3.028 1.126,0.63 1.158,0.646 2.108,1.185 2.487,1.42 -5.359,4.761 -5.03,5.581 12.484,-1.5 13.061,-1.261 -4.304,7.2 l 0.388,0.797 18.402,-8.566 0.253,0.131 -17.844,10.12 0.367,0.758 25.769,-14.018 c 0.207,0.388 0.655,1.1 0.879,1.479 -9.798,9.212 -19.252,16.128 -19.252,16.128 0,0 9.723,-6.512 21.725,-12.563 0.395,0.495 0.717,0.891 1.141,1.361 L 5.544,22.179 6.133,22.786 23.876,7.663 7.44,24.124 8.054,24.764 26.508,6.928 9.328,25.995 9.988,26.586 25.867,9.583 11.374,27.844 11.997,28.41 30.57,5.804 c 0.482,0.414 0.88,0.729 1.38,1.115 -5.615,12.157 -11.755,22.048 -11.755,22.048 0,0 6.53,-9.613 15.347,-19.68 0.539,0.301 1.084,0.591 1.641,0.863 l -0.093,0.064 -13.016,25.978 0.772,0.343 10.785,-20.668 -9.075,21.419 0.811,0.361 10.431,-23.449 -8.787,24.113 0.831,0.304 8.351,-21.713 -6.595,22.362 0.793,0.29 8.681,-27.73 -0.014,-0.073 0.021,0.006 c 0.575,0.194 1.167,0.366 1.756,0.526 -0.66,13.321 -2.635,24.715 -2.635,24.715 0,0 2.441,-11.296 6.818,-23.887 0.608,0.073 1.219,0.137 1.838,0.181 l -0.018,0.027 h 0.075 l -0.043,0.064 -2.341,28.968 0.85,0.022 2.256,-23.201 -0.388,23.261 0.883,0.03 0.889,-25.648 0.883,25.648 0.886,-0.03 -0.388,-23.261 2.258,23.201 0.845,-0.022 -2.336,-28.968 -0.048,-0.064 h 0.016 L 53.129,13.31 h 0.038 c 0.603,-0.039 1.204,-0.098 1.8,-0.169 4.366,12.58 6.8,23.857 6.8,23.857 0,0 -1.962,-11.362 -2.629,-24.656 0.601,-0.158 1.19,-0.331 1.772,-0.521 l 8.652,27.634 0.795,-0.292 -6.601,-22.359 8.355,21.713 0.831,-0.304 -8.787,-24.115 10.431,23.451 0.808,-0.361 -9.076,-21.419 10.789,20.668 0.772,-0.343 -12.973,-25.887 0.026,-0.009 c 0.534,-0.258 1.055,-0.537 1.573,-0.824 8.773,10.035 15.267,19.593 15.267,19.593 0,0 -6.09,-9.823 -11.696,-21.923 0.5,-0.376 0.991,-0.769 1.466,-1.176 L 89.901,28.23 90.526,27.661 76.034,9.403 91.91,26.405 92.568,25.812 75.387,6.745 93.842,24.579 94.459,23.944 78.02,7.483 95.765,22.604 96.351,21.996 74.638,2.861 74.652,2.85 c 0.377,-0.423 0.744,-0.859 1.103,-1.3 11.924,6.029 21.556,12.479 21.556,12.479 0,0 -9.36,-6.848 -19.106,-15.993 0.267,-0.445 0.697,-1.205 0.946,-1.664 l 25.4,13.83 0.368,-0.76 L 84.64,-2.06 105.734,7.755 106.12,6.96 86.476,-2.612 l 0.374,-0.135 19.989,8.086 0.334,-0.818 -18.58,-7.903 0.347,-0.148 12.383,4.128 1.863,1.304 0.621,-0.473 4.074,1.359 0.322,-0.781 -3.528,-1.242 5.094,-3.887 1.63,-0.908 c -6.549,27.371 -31.166,47.721 -60.545,47.721 -29.897,0 -54.862,-21.071 -60.876,-49.169 0.08,0.034 0.153,0.071 0.233,0.11 l 0.742,0.333 0.461,0.222 z" /></g><g
           transform="translate(554.6625,51.0111)"
           id="g1431"><path
             id="path1433"
             style="fill:#19336e;fill-opacity:1;fill-rule:nonzero;stroke:none"
             d="m 0,0 c 0,0 9.182,1.838 16.849,1.838 20.2,0 48.135,-11.374 68.412,-11.374 14.872,0 29.376,4.081 37.279,10.031 0.619,3.517 0.943,7.138 0.943,10.831 0,5.005 -0.594,9.869 -1.712,14.536 l -8.451,4.713 -9.915,-6.951 -6.672,2.599 C 94.475,25.079 80.541,15.758 80.541,15.758 l -5.348,3.873 -5.734,1.132 -7.651,5.572 -8.776,-6.022 c 0,0 -9.793,-5.685 -10.126,-5.685 -0.339,0 -11.817,9.095 -11.817,9.095 l -5.286,5.571 c -0.898,-0.566 -4.494,-2.217 -4.494,-2.217 l -0.187,-0.05 -3.483,1.075 -4.219,2.242 -12.838,-5.82 C 0.502,24.485 0.429,24.449 0.349,24.414 -0.553,20.192 -1.032,15.815 -1.032,11.326 -1.032,7.46 -0.676,3.674 0,0" /></g><g
           transform="translate(1165.1561,65.6996)"
           id="g1435"><path
             id="path1437"
             style="fill:#231f20;fill-opacity:1;fill-rule:evenodd;stroke:none"
             d="m 0,0 c -0.144,-10.045 -4.207,-13.661 -8.704,-13.648 -7.334,0.022 -11.215,8.79 -11.215,17.184 0,9.309 5.187,15.477 10.733,15.153 7.307,-0.427 9.052,-6.233 9.175,-16.564 C -0.005,1.442 -0.005,0.731 0,0 m 7.344,39.441 c 0,0.499 -0.058,1.813 -1.584,1.793 -1.526,-0.02 -11.648,-0.542 -12.36,-0.606 -0.707,-0.061 -1.253,-0.771 -0.016,-0.874 1.225,-0.105 6.637,-0.543 6.637,-9.459 0,-4.328 0.011,-8.717 0.006,-11.909 v -0.412 c -0.006,-0.367 -0.048,-0.553 -0.086,-0.649 -0.016,-0.041 -0.037,-0.075 -0.059,-0.1 l -0.005,-0.002 c -0.134,-0.146 -0.38,-0.016 -0.819,0.319 -0.819,0.633 -4.695,3.034 -9.561,3.047 -7.954,0.021 -17.724,-5.649 -17.724,-17.557 0,-12.609 8.935,-18.599 18.206,-18.599 4.507,0 7.714,2.018 8.849,2.711 1.284,0.787 1.177,0.731 1.408,-0.436 0.182,-0.896 0.075,-2.505 2.35,-2.275 2.591,0.26 8.543,1.001 9.79,1.25 1.199,0.241 0.916,1.023 -0.166,1.151 -0.733,0.088 -4.866,-0.396 -4.866,12.379 z" /></g><g
           transform="translate(1199.4104,76.5154)"
           id="g1439"><path
             id="path1441"
             style="fill:#231f20;fill-opacity:1;fill-rule:evenodd;stroke:none"
             d="m 0,0 v 0 c -0.005,-0.76 0.016,-1.312 -0.011,-1.852 -0.016,-0.284 -0.043,-0.552 -0.08,-0.798 v -0.005 c -0.005,-0.016 -0.005,-0.038 -0.011,-0.059 -0.01,-0.054 -0.016,-0.107 -0.027,-0.161 -0.299,-1.67 -1.097,-2.446 -2.687,-3.233 -2.061,-1.017 -7.847,-1.879 -8.581,-2.045 -2.334,-0.53 -8.902,-2.194 -8.757,-9.076 0.144,-6.793 6.862,-9.087 11.552,-8.974 4.544,0.112 7.21,2.066 8.398,3.03 0.702,0.567 0.643,0.428 1.226,-0.225 0.653,-0.728 2.912,-2.896 8.137,-2.875 5.3,0.021 6.092,2.535 6.397,3.308 0.412,1.033 -0.696,1.601 -1.097,0.664 -0.664,-1.558 -2.003,-1.98 -2.918,-1.97 -1.022,0.011 -4.036,0.252 -4.058,8.014 0,0 0,15.989 -0.005,16.918 0,5.213 -3.977,9.478 -14.507,9.478 -11.327,0 -11.386,-5.582 -11.46,-6.966 -0.086,-1.569 0.738,-3.221 3.586,-3.232 2.564,-0.005 3.174,2.781 3.533,3.849 0.38,1.113 0.46,4.557 5.037,4.486 C -2.441,8.276 -0.021,4.864 0,0 m -0.107,-6.986 c 0.064,-0.075 0.102,-0.198 0.123,-0.332 V -7.32 -7.336 c 0.005,-0.046 0.011,-0.099 0.021,-0.156 v -0.034 -0.017 c 0.006,-0.072 0.006,-0.139 0.006,-0.195 v -0.059 0.054 -0.067 l 0.042,-7.064 c 0,-5.179 -2.676,-9.306 -6.605,-9.306 -4.738,0.011 -5.904,3.951 -5.947,5.808 -0.043,1.858 0.969,5.747 5.642,8.447 0,0 2.168,1.4 6.322,2.987 0.176,0.038 0.305,0.049 0.396,-0.048" /></g><g
           transform="translate(1122.4227,76.3173)"
           id="g1443"><path
             id="path1445"
             style="fill:#231f20;fill-opacity:1;fill-rule:evenodd;stroke:none"
             d="m 0,0 v -0.38 l 0.005,-0.525 c 0,-0.23 0,-0.447 -0.01,-0.664 -0.139,-2.473 -0.91,-3.399 -2.811,-4.341 -2.066,-1.017 -7.853,-1.879 -8.581,-2.045 -2.339,-0.53 -8.907,-2.194 -8.757,-9.076 0.139,-6.793 6.857,-9.087 11.552,-8.974 4.545,0.112 7.205,2.066 8.399,3.03 0.701,0.567 0.637,0.428 1.226,-0.225 0.647,-0.728 2.906,-2.896 8.131,-2.875 5.305,0.022 6.097,2.535 6.402,3.308 0.412,1.034 -0.696,1.601 -1.097,0.664 -0.664,-1.557 -2.002,-1.98 -2.923,-1.97 -1.022,0.011 -4.031,0.252 -4.052,8.014 0,0 -0.006,15.989 -0.006,16.918 0,5.213 -3.977,9.478 -14.506,9.478 -11.333,0 -11.386,-5.582 -11.461,-6.966 -0.086,-1.568 0.739,-3.221 3.581,-3.232 2.569,-0.005 3.174,2.781 3.538,3.849 0.38,1.113 0.455,4.557 5.032,4.486 C -2.425,8.474 0,5.032 0,0.123 Z m -0.107,-6.788 c 0.032,-0.035 0.059,-0.085 0.075,-0.139 v -0.005 c 0.011,-0.014 0.011,-0.03 0.016,-0.046 0.037,-0.136 0.059,-0.334 0.059,-0.621 l -0.005,0.142 c 0.005,-0.037 0.005,-0.069 0.005,-0.096 l 0.037,-7.122 c 0,-5.18 -2.671,-9.307 -6.605,-9.307 -4.732,0.011 -5.899,3.951 -5.942,5.808 -0.048,1.858 0.969,5.747 5.642,8.448 0,0 2.168,1.399 6.317,2.986 0.176,0.038 0.31,0.049 0.401,-0.048" /></g><g
           transform="translate(1015.2858,104.3926)"
           id="g1447"><path
             id="path1449"
             style="fill:#231f20;fill-opacity:1;fill-rule:evenodd;stroke:none"
             d="M 0,0 C 0.626,-0.221 2.564,-0.966 3.176,0.486 3.787,1.935 3.394,0.941 3.601,1.423 3.906,2.139 5.344,2.741 5.622,1.067 5.899,-0.61 6.884,-15.098 6.932,-15.872 7.03,-17.578 4.724,-17.748 4.598,-16.063 4.431,-13.83 -0.039,0.873 -12.252,0.625 -23.139,0.401 -30.306,-12.192 -29.886,-28.471 c 0.393,-15.219 7.731,-23.607 19.767,-23.361 11.591,0.238 14.817,9.057 16.527,14.448 0.706,2.237 2.783,1.614 2.297,-0.428 -2.141,-8.999 -8.945,-16.616 -21.247,-16.868 -13.45,-0.276 -27.959,9.89 -28.325,27.852 C -41.244,-8.332 -26.63,2.378 -12.208,2.673 -6.1,2.798 -2.141,0.753 0,0" /></g><path
           id="path1451"
           style="fill:#ed1d24;fill-opacity:1;fill-rule:evenodd;stroke:none"
           d="m 1185.696,106.698 h -8.774 V 89.151 h 8.774 z" /><g
           transform="translate(1200.6791,98.0225)"
           id="g1453"><path
             id="path1455"
             style="fill:#ed1d24;fill-opacity:1;fill-rule:evenodd;stroke:none"
             d="m 0,0 v 0 c -0.289,0.137 -0.246,0.384 -0.204,0.553 0.049,0.164 0.541,1.891 0.541,1.891 0,0 -1.29,-0.291 -1.59,-0.338 -0.241,-0.037 -0.326,0.075 -0.396,0.24 -0.075,0.165 -0.385,0.922 -0.385,0.922 0,0 -1.579,-1.746 -1.612,-1.778 -0.305,-0.275 -0.599,-0.066 -0.545,0.256 0.048,0.295 0.813,3.788 0.813,3.788 0,0 -0.84,-0.499 -1.119,-0.664 C -4.77,4.705 -4.92,4.732 -5.064,5 -5.208,5.263 -6.215,7.269 -6.247,7.338 V 7.339 7.338 C -6.279,7.269 -7.28,5.263 -7.425,5 -7.575,4.732 -7.724,4.705 -7.998,4.87 c -0.278,0.165 -1.113,0.664 -1.113,0.664 0,0 0.76,-3.493 0.808,-3.788 0.054,-0.322 -0.235,-0.531 -0.54,-0.256 -0.038,0.032 -1.612,1.778 -1.612,1.778 0,0 -0.315,-0.757 -0.39,-0.922 -0.075,-0.165 -0.156,-0.277 -0.396,-0.24 -0.3,0.047 -1.639,0.338 -1.639,0.338 0,0 0.541,-1.727 0.589,-1.891 C -12.248,0.384 -12.2,0.137 -12.494,0 l -0.487,-0.241 c 0,0 2.981,-2.58 3.089,-2.671 0.096,-0.092 0.289,-0.175 0.144,-0.617 -0.144,-0.442 -0.359,-1.041 -0.359,-1.041 0,0 2.763,0.565 3.057,0.628 0.294,0.065 0.546,-0.038 0.546,-0.332 0,-0.296 -0.123,-3.254 -0.123,-3.254 h 0.76 c 0,0 -0.118,2.958 -0.118,3.254 0,0.294 0.246,0.397 0.541,0.332 0.294,-0.063 3.057,-0.628 3.057,-0.628 0,0 -0.209,0.599 -0.359,1.041 -0.145,0.442 0.048,0.525 0.15,0.617 0.101,0.091 3.083,2.671 3.083,2.671 z" /></g><g
           transform="translate(1193.3949,105.3793)"
           id="g1457"><path
             id="path1459"
             style="fill:#ed1d24;fill-opacity:1;fill-rule:evenodd;stroke:none"
             d="M 0,0 Z" /></g><g
           transform="translate(1193.3949,105.3793)"
           id="g1461"><path
             id="path1463"
             style="fill:#ed1d24;fill-opacity:1;fill-rule:evenodd;stroke:none"
             d="M 0,0 Z" /></g><g
           transform="translate(1188.1851,98.0225)"
           id="g1465"><path
             id="path1467"
             style="fill:#ed1d24;fill-opacity:1;fill-rule:evenodd;stroke:none"
             d="M 0,0 Z" /></g><g
           transform="translate(1194.0519,90.4948)"
           id="g1469"><path
             id="path1471"
             style="fill:#231f20;fill-opacity:1;fill-rule:evenodd;stroke:none"
             d="M 0,0 Z" /></g><g
           transform="translate(1194.8119,90.4948)"
           id="g1473"><path
             id="path1475"
             style="fill:#231f20;fill-opacity:1;fill-rule:evenodd;stroke:none"
             d="M 0,0 Z" /></g><path
           id="path1477"
           style="fill:#ed1d24;fill-opacity:1;fill-rule:evenodd;stroke:none"
           d="m 1212.001,106.698 h -8.768 V 89.151 h 8.768 z" /><g
           transform="translate(1044.4745,68.7106)"
           id="g1479"><path
             id="path1481"
             style="fill:#231f20;fill-opacity:1;fill-rule:evenodd;stroke:none"
             d="m 0,0 0.039,-7.069 c 0,-5.179 -2.671,-9.306 -6.607,-9.306 -4.734,0.011 -5.899,3.951 -5.945,5.808 -0.045,1.858 0.971,5.747 5.645,8.447 0,0 2.165,1.4 6.318,2.987 0.175,0.038 0.306,0.048 0.396,-0.048 C -0.096,0.755 -0.06,0.65 -0.039,0.538 -0.036,0.535 -0.036,0.53 -0.033,0.525 V 0.508 c 0,-0.005 0,-0.005 0.002,-0.01 0.012,-0.075 0.02,-0.161 0.023,-0.263 V 0.225 C -0.005,0.22 -0.005,0.214 -0.005,0.209 -0.004,0.161 -0.004,0.118 -0.004,0.075 -0.001,0.053 -0.001,0.032 -0.001,0.008 V 0.07 C -0.001,0.043 -0.001,0.019 0,0 M -0.056,5.958 C -0.078,5.637 -0.107,5.342 -0.15,5.069 -0.158,5.024 -0.165,4.978 -0.174,4.93 V 4.925 C -0.476,3.26 -1.273,2.484 -2.86,1.697 c -2.063,-1.017 -7.849,-1.879 -8.582,-2.045 -2.335,-0.53 -8.902,-2.195 -8.756,-9.076 0.141,-6.793 6.858,-9.087 11.547,-8.974 4.548,0.112 7.212,2.066 8.402,3.029 0.701,0.568 0.641,0.429 1.227,-0.225 0.651,-0.727 2.911,-2.895 8.133,-2.874 5.305,0.021 6.097,2.535 6.403,3.308 0.413,1.033 -0.699,1.601 -1.098,0.664 -0.664,-1.558 -2.004,-1.981 -2.922,-1.97 -1.023,0.011 -4.032,0.252 -4.053,8.014 0,0 -0.004,15.989 -0.006,16.918 0,5.212 -3.978,9.477 -14.509,9.477 -11.328,0 -11.386,-5.582 -11.459,-6.965 -0.086,-1.569 0.737,-3.221 3.583,-3.232 2.568,-0.006 3.175,2.781 3.537,3.849 0.38,1.113 0.457,4.556 5.035,4.486 3.893,0 6.308,-3.412 6.333,-8.276 0,-0.76 0.017,-1.306 -0.011,-1.847" /></g><g
           transform="translate(1088.5221,60.6275)"
           id="g1483"><path
             id="path1485"
             style="fill:#231f20;fill-opacity:1;fill-rule:evenodd;stroke:none"
             d="m 0,0 c 0.003,-5.813 -1.692,-7.698 -3.674,-8.094 -1.83,-0.364 -1.444,-1.247 -0.583,-1.242 0.381,0.003 15.579,-0.016 15.6,-0.016 1.274,0.003 2.147,0.822 -0.113,1.339 -1.379,0.31 -3.682,1.884 -3.685,9.191 L 7.512,14.699 c -0.026,3.231 0.336,11.377 -12.369,11.377 -6.486,0 -10.285,-3.292 -10.663,-3.584 -0.585,-0.454 -0.834,-0.668 -1.093,0.191 -0.198,0.659 -0.544,1.756 -0.741,2.324 -0.195,0.568 -0.432,1.049 -1.664,0.876 -1.235,-0.172 -8.637,-1.342 -9.867,-1.649 -1.229,-0.305 -0.903,-0.827 -0.012,-0.974 0.891,-0.148 4.873,-0.472 4.849,-7.378 -0.022,-6.91 -0.007,-14.453 -0.007,-14.453 0.04,-8.335 -1.728,-9.105 -3.267,-9.528 -2.007,-0.552 -1.072,-1.25 -0.11,-1.253 0.02,0 14.966,0.011 15.346,0.016 1.026,0.016 1.479,0.942 -0.586,1.288 -1.99,0.329 -3.881,1.501 -3.838,8.048 0.004,0.645 0.002,7.906 -0.016,9.229 -0.05,3.468 -0.865,14.362 8.957,14.455 6.856,0.223 7.517,-5.502 7.553,-9.311 z" /></g></g></g></g></svg>